<svg width="512" height="512" version="1.1" xmlns="http://www.w3.org/2000/svg" desc="Created with ImageTracer.java version 1.1.2" ><path desc="l 4 p 0" fill="rgb(254,254,254)" stroke="rgb(254,254,254)" stroke-width="1" opacity="0.0" d="M 0.5 0.0 L 512.0 0.5 L 511.5 152.0 Q 509.2 141.3 502.5 135.0 Q 496.0 128.5 485.5 126.0 L 466.5 125.0 L 451.5 125.0 Q 444.1 125.9 440.5 123.0 Q 431.5 119.5 426.0 112.5 L 420.0 99.5 L 413.0 78.5 L 408.0 66.5 Q 405.3 56.3 397.5 51.0 Q 392.7 46.3 384.5 45.0 Q 378.6 42.4 368.5 44.0 L 329.5 44.0 L 171.5 44.0 Q 157.3 47.3 150.0 57.5 L 143.5 72.0 L 136.0 92.5 Q 133.3 108.3 123.5 117.0 L 114.0 122.5 Q 109.8 125.8 101.5 125.0 L 101.0 84.5 L 101.0 73.5 Q 101.9 65.6 96.5 64.0 Q 92.2 60.3 82.5 62.0 L 49.5 62.0 L 43.0 66.5 L 41.0 73.5 L 41.0 84.5 L 40.5 125.0 L 29.5 126.0 Q 22.9 125.4 20.0 128.5 L 9.0 135.5 Q 2.7 141.7 0.5 152.0 L 0.5 0.0 Z" /><path desc="l 12 p 0" fill="rgb(236,174,100)" stroke="rgb(236,174,100)" stroke-width="1" opacity="0.7490196078431373" d="M 176.5 44.0 L 202.0 44.5 L 176.5 45.0 L 176.5 44.0 Z" /><path desc="l 6 p 0" fill="rgb(248,181,97)" stroke="rgb(248,181,97)" stroke-width="1" opacity="0.592156862745098" d="M 202.5 44.0 L 377.0 44.5 L 202.5 45.0 L 202.5 44.0 Z" /><path desc="l 8 p 0" fill="rgb(226,176,107)" stroke="rgb(226,176,107)" stroke-width="1" opacity="0.21568627450980393" d="M 379.5 44.0 L 382.0 44.5 L 379.5 45.0 L 379.5 44.0 Z" /><path desc="l 5 p 0" fill="rgb(248,177,92)" stroke="rgb(248,177,92)" stroke-width="1" opacity="0.996078431372549" d="M 170.5 45.0 L 329.5 45.0 L 369.5 45.0 Q 382.3 43.2 389.0 47.5 L 401.0 55.5 Q 406.7 61.3 409.0 70.5 L 415.0 87.5 L 420.5 104.0 Q 424.3 114.2 432.5 120.0 Q 439.1 125.9 451.5 126.0 L 466.5 126.0 L 485.5 127.0 Q 498.2 130.3 505.0 139.5 Q 510.6 144.9 511.0 155.5 Q 513.4 162.6 512.0 173.5 L 512.0 217.5 L 375.5 218.0 Q 366.9 204.1 355.5 193.0 Q 339.0 176.5 316.5 166.0 L 302.5 161.0 Q 299.5 158.0 293.5 158.0 L 281.5 155.0 L 275.5 154.0 L 263.5 153.0 L 240.5 153.0 L 223.0 156.5 L 205.5 162.0 L 191.0 168.5 Q 170.1 178.6 155.0 194.5 L 136.5 218.0 L 0.0 217.5 L 0.0 172.5 L 0.5 156.0 L 4.0 144.5 Q 7.3 136.3 14.5 132.0 Q 23.8 124.8 41.5 126.0 L 75.5 126.0 L 98.5 126.0 Q 118.7 126.2 127.0 114.5 Q 133.3 107.8 135.5 97.0 L 141.5 80.0 L 146.0 67.5 Q 149.1 56.6 157.5 51.0 L 170.5 45.0 Z" /><path desc="l 8 p 1" fill="rgb(226,176,107)" stroke="rgb(226,176,107)" stroke-width="1" opacity="0.21568627450980393" d="M 398.5 52.0 L 401.5 56.0 L 398.5 52.0 Z" /><path desc="l 6 p 1" fill="rgb(248,181,97)" stroke="rgb(248,181,97)" stroke-width="1" opacity="0.592156862745098" d="M 154.5 53.0 L 153.5 55.0 L 154.5 53.0 Z" /><path desc="l 8 p 2" fill="rgb(226,176,107)" stroke="rgb(226,176,107)" stroke-width="1" opacity="0.21568627450980393" d="M 151.5 56.0 L 150.5 58.0 L 151.5 56.0 Z" /><path desc="l 12 p 1" fill="rgb(236,174,100)" stroke="rgb(236,174,100)" stroke-width="1" opacity="0.7490196078431373" d="M 401.5 56.0 L 402.5 58.0 L 401.5 56.0 Z" /><path desc="l 11 p 0" fill="rgb(149,177,164)" stroke="rgb(149,177,164)" stroke-width="1" opacity="0.06274509803921569" d="M 402.5 56.0 L 403.5 58.0 L 402.5 56.0 Z" /><path desc="l 13 p 0" fill="rgb(227,231,232)" stroke="rgb(227,231,232)" stroke-width="1" opacity="0.996078431372549" d="M 51.5 62.0 L 79.5 62.0 Q 87.7 60.3 91.5 63.0 Q 97.8 63.7 100.0 68.5 Q 102.3 75.2 101.0 85.5 L 101.0 125.5 L 41.5 126.0 L 41.0 73.5 Q 41.9 66.9 46.5 64.0 L 51.5 62.0 Z" /><path desc="l 13 p 1" fill="rgb(227,231,232)" stroke="rgb(227,231,232)" stroke-width="1" opacity="0.996078431372549" d="M 304.5 81.0 L 354.5 81.0 L 366.5 81.0 Q 373.8 79.8 375.0 84.5 L 375.0 99.5 Q 376.3 106.8 372.5 109.0 L 366.5 110.0 L 354.5 110.0 L 304.5 110.0 L 302.0 108.5 Q 299.0 106.5 300.0 100.5 L 300.0 85.5 L 302.5 82.0 L 304.5 81.0 Z" /><path desc="l 11 p 1" fill="rgb(149,177,164)" stroke="rgb(149,177,164)" stroke-width="1" opacity="0.06274509803921569" d="M 127.5 112.0 L 126.5 114.0 L 127.5 112.0 Z" /><path desc="l 10 p 0" fill="rgb(232,179,110)" stroke="rgb(232,179,110)" stroke-width="1" opacity="0.43137254901960786" d="M 426.5 113.0 L 427.5 115.0 L 426.5 113.0 Z" /><path desc="l 8 p 3" fill="rgb(226,176,107)" stroke="rgb(226,176,107)" stroke-width="1" opacity="0.21568627450980393" d="M 428.5 115.0 L 429.5 117.0 L 428.5 115.0 Z" /><path desc="l 12 p 2" fill="rgb(236,174,100)" stroke="rgb(236,174,100)" stroke-width="1" opacity="0.7490196078431373" d="M 124.5 116.0 L 123.5 118.0 L 124.5 116.0 Z" /><path desc="l 8 p 4" fill="rgb(226,176,107)" stroke="rgb(226,176,107)" stroke-width="1" opacity="0.21568627450980393" d="M 33.5 125.0 L 41.0 125.5 L 33.5 126.0 L 33.5 125.0 Z" /><path desc="l 8 p 5" fill="rgb(226,176,107)" stroke="rgb(226,176,107)" stroke-width="1" opacity="0.21568627450980393" d="M 101.5 125.0 L 104.0 125.5 L 101.5 126.0 L 101.5 125.0 Z" /><path desc="l 10 p 1" fill="rgb(232,179,110)" stroke="rgb(232,179,110)" stroke-width="1" opacity="0.43137254901960786" d="M 447.5 125.0 L 450.0 125.5 L 447.5 126.0 L 447.5 125.0 Z" /><path desc="l 8 p 6" fill="rgb(226,176,107)" stroke="rgb(226,176,107)" stroke-width="1" opacity="0.21568627450980393" d="M 450.5 125.0 L 478.0 125.5 L 450.5 126.0 L 450.5 125.0 Z" /><path desc="l 12 p 3" fill="rgb(236,174,100)" stroke="rgb(236,174,100)" stroke-width="1" opacity="0.7490196078431373" d="M 27.5 126.0 L 30.0 126.5 L 27.5 127.0 L 27.5 126.0 Z" /><path desc="l 8 p 7" fill="rgb(226,176,107)" stroke="rgb(226,176,107)" stroke-width="1" opacity="0.21568627450980393" d="M 14.5 131.0 L 13.5 133.0 L 14.5 131.0 Z" /><path desc="l 8 p 8" fill="rgb(226,176,107)" stroke="rgb(226,176,107)" stroke-width="1" opacity="0.21568627450980393" d="M 498.5 132.0 L 499.5 134.0 L 498.5 132.0 Z" /><path desc="l 12 p 4" fill="rgb(236,174,100)" stroke="rgb(236,174,100)" stroke-width="1" opacity="0.7490196078431373" d="M 10.5 135.0 L 9.5 137.0 L 10.5 135.0 Z" /><path desc="l 6 p 2" fill="rgb(248,181,97)" stroke="rgb(248,181,97)" stroke-width="1" opacity="0.592156862745098" d="M 501.5 135.0 L 502.5 137.0 L 501.5 135.0 Z" /><path desc="l 8 p 9" fill="rgb(226,176,107)" stroke="rgb(226,176,107)" stroke-width="1" opacity="0.21568627450980393" d="M 504.5 138.0 L 505.5 140.0 L 504.5 138.0 Z" /><path desc="l 8 p 10" fill="rgb(226,176,107)" stroke="rgb(226,176,107)" stroke-width="1" opacity="0.21568627450980393" d="M 6.5 139.0 L 5.5 141.0 L 6.5 139.0 Z" /><path desc="l 13 p 2" fill="rgb(227,231,232)" stroke="rgb(227,231,232)" stroke-width="1" opacity="0.996078431372549" d="M 240.5 153.0 L 263.5 153.0 L 274.5 154.0 L 281.5 155.0 L 293.5 158.0 L 302.0 160.5 L 316.5 166.0 Q 340.0 177.0 357.0 194.5 Q 372.5 209.5 382.0 230.5 L 387.5 242.0 L 394.0 261.5 L 397.0 277.5 L 397.0 288.5 L 398.0 295.5 Q 395.5 297.0 397.0 302.5 L 396.0 316.5 L 392.5 331.0 Q 388.3 349.8 379.0 363.5 Q 368.7 383.7 352.5 398.0 Q 338.5 411.5 320.0 420.5 L 293.5 431.0 L 277.5 434.0 L 267.5 435.0 L 252.5 436.0 Q 251.0 433.5 245.5 435.0 L 232.0 433.5 Q 203.1 428.9 183.0 415.5 Q 165.3 405.2 152.0 390.5 Q 137.9 376.1 129.0 356.5 Q 121.7 343.3 118.0 326.5 L 115.0 310.5 Q 116.8 299.8 114.0 293.5 Q 116.5 292.0 115.0 286.5 L 116.0 271.5 L 119.0 258.5 L 124.5 242.0 L 130.0 230.5 Q 140.0 208.5 156.5 193.0 Q 170.8 178.3 190.5 169.0 L 205.5 162.0 Q 212.5 158.0 222.5 157.0 L 230.5 155.0 L 240.5 153.0 Z" /><path desc="l 7 p 0" fill="rgb(110,123,127)" stroke="rgb(110,123,127)" stroke-width="1" opacity="1.0" d="M 248.5 186.0 L 264.0 186.5 L 248.5 187.0 L 248.5 186.0 Z" /><path desc="l 7 p 1" fill="rgb(110,123,127)" stroke="rgb(110,123,127)" stroke-width="1" opacity="1.0" d="M 239.5 187.0 L 242.0 187.5 L 239.5 188.0 L 239.5 187.0 Z" /><path desc="l 15 p 0" fill="rgb(76,89,93)" stroke="rgb(76,89,93)" stroke-width="1" opacity="1.0" d="M 242.5 187.0 L 270.0 187.5 L 283.5 190.0 Q 296.6 192.9 306.5 199.0 Q 326.5 209.5 340.0 226.5 Q 349.6 238.4 356.0 253.5 L 358.0 259.5 L 363.0 281.5 L 364.0 295.5 Q 361.5 297.0 363.0 302.5 L 362.5 309.0 L 360.0 320.5 Q 356.2 339.7 346.0 352.5 Q 339.5 364.5 329.5 373.0 Q 318.0 384.0 302.5 391.0 Q 289.1 398.6 270.5 401.0 L 251.5 402.0 L 246.5 401.0 L 238.5 400.0 Q 216.0 397.0 201.0 386.5 Q 187.2 378.8 177.0 367.5 Q 163.9 354.1 156.5 335.0 L 152.5 323.0 L 149.0 306.5 L 148.0 292.5 Q 150.3 291.3 149.0 286.5 L 150.0 275.5 L 154.0 260.5 Q 156.3 249.8 162.0 242.5 Q 171.8 222.8 188.5 210.0 Q 204.7 196.7 227.5 190.0 L 242.5 187.0 Z" /><path desc="l 7 p 2" fill="rgb(110,123,127)" stroke="rgb(110,123,127)" stroke-width="1" opacity="1.0" d="M 270.5 187.0 L 273.0 187.5 L 270.5 188.0 L 270.5 187.0 Z" /><path desc="l 7 p 3" fill="rgb(110,123,127)" stroke="rgb(110,123,127)" stroke-width="1" opacity="1.0" d="M 251.5 202.0 Q 262.3 200.3 268.5 203.0 L 280.5 205.0 L 301.0 213.5 Q 313.6 220.4 323.0 230.5 Q 333.3 241.2 340.0 255.5 L 346.0 272.5 L 347.5 283.0 L 348.0 298.5 L 336.5 299.0 L 320.0 294.5 Q 304.5 290.5 294.0 281.5 Q 290.0 269.0 280.5 262.0 L 266.0 253.5 L 262.0 245.5 L 257.0 233.5 Q 252.8 226.2 252.0 215.5 Q 249.5 210.3 251.5 202.0 Z" /><path desc="l 7 p 4" fill="rgb(110,123,127)" stroke="rgb(110,123,127)" stroke-width="1" opacity="1.0" d="M 197.5 203.0 L 196.5 205.0 L 197.5 203.0 Z" /><path desc="l 7 p 5" fill="rgb(110,123,127)" stroke="rgb(110,123,127)" stroke-width="1" opacity="1.0" d="M 314.5 203.0 L 315.5 205.0 L 314.5 203.0 Z" /><path desc="l 7 p 6" fill="rgb(110,123,127)" stroke="rgb(110,123,127)" stroke-width="1" opacity="1.0" d="M 194.5 205.0 L 193.5 207.0 L 194.5 205.0 Z" /><path desc="l 7 p 7" fill="rgb(110,123,127)" stroke="rgb(110,123,127)" stroke-width="1" opacity="1.0" d="M 317.5 205.0 L 318.5 207.0 L 317.5 205.0 Z" /><path desc="l 7 p 8" fill="rgb(110,123,127)" stroke="rgb(110,123,127)" stroke-width="1" opacity="1.0" d="M 190.5 208.0 L 189.5 210.0 L 190.5 208.0 Z" /><path desc="l 7 p 9" fill="rgb(110,123,127)" stroke="rgb(110,123,127)" stroke-width="1" opacity="1.0" d="M 321.5 208.0 L 322.5 210.0 L 321.5 208.0 Z" /><path desc="l 7 p 10" fill="rgb(110,123,127)" stroke="rgb(110,123,127)" stroke-width="1" opacity="1.0" d="M 185.5 212.0 L 174.5 224.0 L 185.5 212.0 Z" /><path desc="l 7 p 11" fill="rgb(110,123,127)" stroke="rgb(110,123,127)" stroke-width="1" opacity="1.0" d="M 326.5 212.0 L 337.5 224.0 L 326.5 212.0 Z" /><path desc="l 2 p 0" fill="rgb(55,166,205)" stroke="rgb(55,166,205)" stroke-width="1" opacity="0.996078431372549" d="M 0.5 218.0 L 27.0 218.5 L 27.0 384.5 L 27.0 426.5 L 27.0 436.5 L 28.0 442.5 L 32.0 452.5 L 41.5 462.0 Q 47.5 466.5 57.0 467.5 L 32.5 468.0 L 23.5 466.0 Q 12.3 462.3 6.0 453.5 L 3.5 449.0 L 1.0 441.5 Q -1.6 435.6 0.0 425.5 L 0.0 383.5 L 0.5 218.0 Z" /><path desc="l 0 p 0" fill="rgb(83,188,232)" stroke="rgb(83,188,232)" stroke-width="1" opacity="0.996078431372549" d="M 27.5 218.0 L 136.0 218.5 L 127.5 235.0 L 122.0 248.5 L 117.0 267.5 L 115.0 277.5 L 115.0 288.5 L 114.0 295.5 Q 116.5 297.0 115.0 302.5 L 116.0 316.5 L 119.5 331.0 Q 123.8 349.8 133.0 363.5 Q 143.3 383.7 159.5 398.0 Q 173.5 411.5 192.0 420.5 L 218.5 431.0 L 234.5 434.0 L 244.5 435.0 L 259.5 436.0 Q 261.0 433.5 266.5 435.0 L 280.0 433.5 Q 308.9 428.9 329.0 415.5 Q 346.7 405.2 360.0 390.5 Q 374.1 376.1 383.0 356.5 Q 390.3 343.3 394.0 326.5 L 397.0 310.5 Q 395.3 299.8 398.0 293.5 Q 395.5 292.0 397.0 286.5 L 396.0 271.5 Q 390.5 240.5 376.0 218.5 L 511.5 218.0 L 512.0 436.5 L 510.0 445.5 Q 506.4 454.4 499.5 460.0 Q 492.8 466.8 479.5 467.0 L 458.5 467.0 L 377.5 467.0 L 139.5 467.0 L 79.5 467.0 L 64.5 467.0 L 57.5 468.0 Q 40.1 464.9 32.0 452.5 L 28.0 442.5 L 27.0 437.5 L 27.0 426.5 L 27.0 384.5 L 27.5 218.0 Z" /><path desc="l 7 p 12" fill="rgb(110,123,127)" stroke="rgb(110,123,127)" stroke-width="1" opacity="1.0" d="M 171.5 227.0 L 170.5 229.0 L 171.5 227.0 Z" /><path desc="l 7 p 13" fill="rgb(110,123,127)" stroke="rgb(110,123,127)" stroke-width="1" opacity="1.0" d="M 340.5 227.0 L 341.5 229.0 L 340.5 227.0 Z" /><path desc="l 7 p 14" fill="rgb(110,123,127)" stroke="rgb(110,123,127)" stroke-width="1" opacity="1.0" d="M 168.5 231.0 L 167.5 233.0 L 168.5 231.0 Z" /><path desc="l 7 p 15" fill="rgb(110,123,127)" stroke="rgb(110,123,127)" stroke-width="1" opacity="1.0" d="M 343.5 231.0 L 344.5 233.0 L 343.5 231.0 Z" /><path desc="l 7 p 16" fill="rgb(110,123,127)" stroke="rgb(110,123,127)" stroke-width="1" opacity="1.0" d="M 149.5 277.0 L 150.0 279.5 L 149.0 279.5 L 149.5 277.0 Z" /><path desc="l 7 p 17" fill="rgb(110,123,127)" stroke="rgb(110,123,127)" stroke-width="1" opacity="1.0" d="M 362.5 277.0 L 363.0 279.5 L 362.0 279.5 L 362.5 277.0 Z" /><path desc="l 7 p 18" fill="rgb(110,123,127)" stroke="rgb(110,123,127)" stroke-width="1" opacity="1.0" d="M 148.5 284.0 L 149.0 291.5 L 148.0 291.5 L 148.5 284.0 Z" /><path desc="l 7 p 19" fill="rgb(110,123,127)" stroke="rgb(110,123,127)" stroke-width="1" opacity="1.0" d="M 363.5 284.0 L 364.0 291.5 L 363.0 291.5 L 363.5 284.0 Z" /><path desc="l 7 p 20" fill="rgb(110,123,127)" stroke="rgb(110,123,127)" stroke-width="1" opacity="1.0" d="M 164.5 289.0 L 173.0 289.5 L 181.5 291.0 L 195.5 295.0 Q 208.5 299.0 218.0 306.5 Q 222.3 320.7 233.5 328.0 L 245.0 333.5 L 255.0 352.5 L 259.0 367.5 L 260.5 376.0 L 261.0 385.5 L 244.5 386.0 Q 206.3 379.2 186.0 354.5 Q 177.1 344.9 172.0 331.5 Q 166.8 323.2 165.5 311.0 L 164.5 305.0 L 164.5 289.0 Z" /><path desc="l 7 p 21" fill="rgb(110,123,127)" stroke="rgb(110,123,127)" stroke-width="1" opacity="1.0" d="M 148.5 296.0 L 149.0 304.5 L 148.0 304.5 L 148.5 296.0 Z" /><path desc="l 7 p 22" fill="rgb(110,123,127)" stroke="rgb(110,123,127)" stroke-width="1" opacity="1.0" d="M 363.5 296.0 L 364.0 304.5 L 363.0 304.5 L 363.5 296.0 Z" /><path desc="l 7 p 23" fill="rgb(110,123,127)" stroke="rgb(110,123,127)" stroke-width="1" opacity="1.0" d="M 149.5 309.0 L 150.0 311.5 L 149.0 311.5 L 149.5 309.0 Z" /><path desc="l 7 p 24" fill="rgb(110,123,127)" stroke="rgb(110,123,127)" stroke-width="1" opacity="1.0" d="M 362.5 309.0 L 363.0 311.5 L 362.0 311.5 L 362.5 309.0 Z" /><path desc="l 7 p 25" fill="rgb(110,123,127)" stroke="rgb(110,123,127)" stroke-width="1" opacity="1.0" d="M 166.5 354.0 L 167.5 356.0 L 166.5 354.0 Z" /><path desc="l 7 p 26" fill="rgb(110,123,127)" stroke="rgb(110,123,127)" stroke-width="1" opacity="1.0" d="M 345.5 354.0 L 344.5 356.0 L 345.5 354.0 Z" /><path desc="l 7 p 27" fill="rgb(110,123,127)" stroke="rgb(110,123,127)" stroke-width="1" opacity="1.0" d="M 169.5 358.0 L 170.5 360.0 L 169.5 358.0 Z" /><path desc="l 7 p 28" fill="rgb(110,123,127)" stroke="rgb(110,123,127)" stroke-width="1" opacity="1.0" d="M 342.5 358.0 L 341.5 360.0 L 342.5 358.0 Z" /><path desc="l 7 p 29" fill="rgb(110,123,127)" stroke="rgb(110,123,127)" stroke-width="1" opacity="1.0" d="M 172.5 362.0 L 176.5 367.0 L 172.5 362.0 Z" /><path desc="l 7 p 30" fill="rgb(110,123,127)" stroke="rgb(110,123,127)" stroke-width="1" opacity="1.0" d="M 339.5 362.0 L 335.5 367.0 L 339.5 362.0 Z" /><path desc="l 7 p 31" fill="rgb(110,123,127)" stroke="rgb(110,123,127)" stroke-width="1" opacity="1.0" d="M 183.5 373.0 L 187.5 378.0 L 183.5 373.0 Z" /><path desc="l 7 p 32" fill="rgb(110,123,127)" stroke="rgb(110,123,127)" stroke-width="1" opacity="1.0" d="M 328.5 373.0 L 324.5 378.0 L 328.5 373.0 Z" /><path desc="l 7 p 33" fill="rgb(110,123,127)" stroke="rgb(110,123,127)" stroke-width="1" opacity="1.0" d="M 190.5 379.0 L 191.5 381.0 L 190.5 379.0 Z" /><path desc="l 7 p 34" fill="rgb(110,123,127)" stroke="rgb(110,123,127)" stroke-width="1" opacity="1.0" d="M 321.5 379.0 L 320.5 381.0 L 321.5 379.0 Z" /><path desc="l 7 p 35" fill="rgb(110,123,127)" stroke="rgb(110,123,127)" stroke-width="1" opacity="1.0" d="M 92.5 382.0 L 95.0 382.5 L 92.5 383.0 L 92.5 382.0 Z" /><path desc="l 15 p 1" fill="rgb(76,89,93)" stroke="rgb(76,89,93)" stroke-width="1" opacity="1.0" d="M 95.5 382.0 Q 113.0 382.5 120.0 393.5 L 124.0 402.5 L 125.0 407.5 L 125.0 416.5 Q 121.6 428.1 112.5 434.0 Q 105.6 439.6 91.5 438.0 Q 81.9 435.1 76.0 428.5 L 70.0 416.5 L 69.0 409.5 L 71.0 400.5 Q 74.3 391.8 81.5 387.0 L 95.5 382.0 Z" /><path desc="l 7 p 36" fill="rgb(110,123,127)" stroke="rgb(110,123,127)" stroke-width="1" opacity="1.0" d="M 99.5 382.0 L 103.0 382.5 L 99.5 383.0 L 99.5 382.0 Z" /><path desc="l 7 p 37" fill="rgb(110,123,127)" stroke="rgb(110,123,127)" stroke-width="1" opacity="1.0" d="M 194.5 382.0 L 195.5 384.0 L 194.5 382.0 Z" /><path desc="l 7 p 38" fill="rgb(110,123,127)" stroke="rgb(110,123,127)" stroke-width="1" opacity="1.0" d="M 317.5 382.0 L 316.5 384.0 L 317.5 382.0 Z" /><path desc="l 2 p 1" fill="rgb(55,166,205)" stroke="rgb(55,166,205)" stroke-width="1" opacity="0.996078431372549" d="M 81.5 386.0 L 80.5 388.0 L 81.5 386.0 Z" /><path desc="l 7 p 39" fill="rgb(110,123,127)" stroke="rgb(110,123,127)" stroke-width="1" opacity="1.0" d="M 112.5 386.0 L 113.5 388.0 L 112.5 386.0 Z" /><path desc="l 2 p 2" fill="rgb(55,166,205)" stroke="rgb(55,166,205)" stroke-width="1" opacity="0.996078431372549" d="M 114.5 387.0 L 115.5 389.0 L 114.5 387.0 Z" /><path desc="l 7 p 40" fill="rgb(110,123,127)" stroke="rgb(110,123,127)" stroke-width="1" opacity="1.0" d="M 79.5 388.0 L 75.5 393.0 L 79.5 388.0 Z" /><path desc="l 7 p 41" fill="rgb(110,123,127)" stroke="rgb(110,123,127)" stroke-width="1" opacity="1.0" d="M 116.5 389.0 L 117.5 391.0 L 116.5 389.0 Z" /><path desc="l 2 p 3" fill="rgb(55,166,205)" stroke="rgb(55,166,205)" stroke-width="1" opacity="0.996078431372549" d="M 118.5 391.0 L 119.5 393.0 L 118.5 391.0 Z" /><path desc="l 2 p 4" fill="rgb(55,166,205)" stroke="rgb(55,166,205)" stroke-width="1" opacity="0.996078431372549" d="M 74.5 393.0 L 73.5 395.0 L 74.5 393.0 Z" /><path desc="l 7 p 42" fill="rgb(110,123,127)" stroke="rgb(110,123,127)" stroke-width="1" opacity="1.0" d="M 244.5 401.0 L 251.0 401.5 L 244.5 402.0 L 244.5 401.0 Z" /><path desc="l 7 p 43" fill="rgb(110,123,127)" stroke="rgb(110,123,127)" stroke-width="1" opacity="1.0" d="M 261.5 401.0 L 268.0 401.5 L 261.5 402.0 L 261.5 401.0 Z" /><path desc="l 7 p 44" fill="rgb(110,123,127)" stroke="rgb(110,123,127)" stroke-width="1" opacity="1.0" d="M 69.5 405.0 L 70.0 408.5 L 69.0 408.5 L 69.5 405.0 Z" /><path desc="l 2 p 5" fill="rgb(55,166,205)" stroke="rgb(55,166,205)" stroke-width="1" opacity="0.996078431372549" d="M 125.5 405.0 L 126.0 408.5 L 125.0 408.5 L 125.5 405.0 Z" /><path desc="l 7 p 45" fill="rgb(110,123,127)" stroke="rgb(110,123,127)" stroke-width="1" opacity="1.0" d="M 125.5 409.0 L 126.0 411.5 L 125.0 411.5 L 125.5 409.0 Z" /><path desc="l 7 p 46" fill="rgb(110,123,127)" stroke="rgb(110,123,127)" stroke-width="1" opacity="1.0" d="M 69.5 411.0 L 70.0 414.5 L 69.0 414.5 L 69.5 411.0 Z" /><path desc="l 2 p 6" fill="rgb(55,166,205)" stroke="rgb(55,166,205)" stroke-width="1" opacity="0.996078431372549" d="M 125.5 412.0 L 126.0 414.5 L 125.0 414.5 L 125.5 412.0 Z" /><path desc="l 7 p 47" fill="rgb(110,123,127)" stroke="rgb(110,123,127)" stroke-width="1" opacity="1.0" d="M 74.5 426.0 L 75.5 428.0 L 74.5 426.0 Z" /><path desc="l 7 p 48" fill="rgb(110,123,127)" stroke="rgb(110,123,127)" stroke-width="1" opacity="1.0" d="M 120.5 426.0 L 114.5 433.0 L 120.5 426.0 Z" /><path desc="l 2 p 7" fill="rgb(55,166,205)" stroke="rgb(55,166,205)" stroke-width="1" opacity="0.996078431372549" d="M 75.5 428.0 L 78.5 432.0 L 75.5 428.0 Z" /><path desc="l 7 p 49" fill="rgb(110,123,127)" stroke="rgb(110,123,127)" stroke-width="1" opacity="1.0" d="M 80.5 432.0 L 81.5 434.0 L 80.5 432.0 Z" /><path desc="l 3 p 0" fill="rgb(131,178,178)" stroke="rgb(131,178,178)" stroke-width="1" opacity="0.7176470588235294" d="M 511.5 437.0 L 512.0 439.5 L 511.0 439.5 L 511.5 437.0 Z" /><path desc="l 2 p 8" fill="rgb(55,166,205)" stroke="rgb(55,166,205)" stroke-width="1" opacity="0.996078431372549" d="M 93.5 438.0 L 97.0 438.5 L 93.5 439.0 L 93.5 438.0 Z" /><path desc="l 2 p 9" fill="rgb(55,166,205)" stroke="rgb(55,166,205)" stroke-width="1" opacity="0.996078431372549" d="M 98.5 438.0 L 101.0 438.5 L 98.5 439.0 L 98.5 438.0 Z" /><path desc="l 4 p 1" fill="rgb(254,254,254)" stroke="rgb(254,254,254)" stroke-width="1" opacity="0.0" d="M 0.5 442.0 Q 3.4 454.6 12.5 461.0 Q 20.3 468.3 35.5 468.0 L 56.5 468.0 L 142.5 468.0 L 483.5 468.0 Q 497.5 465.0 505.0 455.5 Q 510.0 450.5 511.5 442.0 L 512.0 511.5 L 0.5 512.0 L 0.5 442.0 Z" /><path desc="l 3 p 1" fill="rgb(131,178,178)" stroke="rgb(131,178,178)" stroke-width="1" opacity="0.7176470588235294" d="M 505.5 453.0 L 504.5 455.0 L 505.5 453.0 Z" /><path desc="l 11 p 2" fill="rgb(149,177,164)" stroke="rgb(149,177,164)" stroke-width="1" opacity="0.06274509803921569" d="M 504.5 455.0 L 503.5 457.0 L 504.5 455.0 Z" /><path desc="l 11 p 3" fill="rgb(149,177,164)" stroke="rgb(149,177,164)" stroke-width="1" opacity="0.06274509803921569" d="M 500.5 459.0 L 499.5 461.0 L 500.5 459.0 Z" /><path desc="l 3 p 2" fill="rgb(131,178,178)" stroke="rgb(131,178,178)" stroke-width="1" opacity="0.7176470588235294" d="M 498.5 460.0 L 497.5 462.0 L 498.5 460.0 Z" /><path desc="l 3 p 3" fill="rgb(131,178,178)" stroke="rgb(131,178,178)" stroke-width="1" opacity="0.7176470588235294" d="M 59.5 467.0 L 481.0 467.5 L 59.5 468.0 L 59.5 467.0 Z" /></svg>